<?xml version="1.0" encoding="UTF-8" standalone="no"?><!DOCTYPE svg PUBLIC "-//W3C//DTD SVG 1.1//EN" "http://www.w3.org/Graphics/SVG/1.1/DTD/svg11.dtd"><svg width="100%" height="100%" viewBox="0 0 14 43" version="1.1" xmlns="http://www.w3.org/2000/svg" xmlns:xlink="http://www.w3.org/1999/xlink" xml:space="preserve" xmlns:serif="http://www.serif.com/" style="fill-rule:evenodd;clip-rule:evenodd;stroke-linejoin:round;stroke-miterlimit:2;"><g id="Arrow"><path d="M6.419,0.002c-0.551,0 -0.999,0.448 -0.999,1c0,5.152 0,28.679 0,33.834c0,0.265 0.106,0.52 0.293,0.707c0.188,0.188 0.442,0.293 0.707,0.293c0.295,-0 0.618,-0 0.913,-0c0.265,-0 0.519,-0.105 0.707,-0.293c0.187,-0.188 0.293,-0.442 0.293,-0.707c-0,-5.154 -0,-28.678 -0,-33.835c-0,-0.265 -0.106,-0.52 -0.294,-0.707c-0.187,-0.188 -0.442,-0.293 -0.707,-0.293c-0.295,0 -0.618,0.001 -0.913,0.001Z" style="fill:#f7f9bf;"/><path id="arrow_tip" d="M6.091,41.578c0.189,0.252 0.485,0.4 0.8,0.4c0.315,0 0.611,-0.148 0.8,-0.4c1.81,-2.413 6.062,-8.083 6.062,-8.083l-3.904,1.878c0,0 -1.308,1.436 -2.185,2.398c-0.195,0.214 -0.472,0.333 -0.761,0.326c-0.29,-0.006 -0.562,-0.138 -0.747,-0.36c-0.799,-0.961 -1.966,-2.364 -1.966,-2.364l-4.19,-1.916c0,0 4.275,5.701 6.091,8.121Z" style="fill:#f7f9bf;"/></g></svg>