<?xml version="1.0" encoding="UTF-8" standalone="no"?><!DOCTYPE svg PUBLIC "-//W3C//DTD SVG 1.1//EN" "http://www.w3.org/Graphics/SVG/1.1/DTD/svg11.dtd"><svg width="100%" height="100%" viewBox="0 0 41 42" version="1.1" xmlns="http://www.w3.org/2000/svg" xmlns:xlink="http://www.w3.org/1999/xlink" xml:space="preserve" xmlns:serif="http://www.serif.com/" style="fill-rule:evenodd;clip-rule:evenodd;stroke-linejoin:round;stroke-miterlimit:2;"><g id="menu"><path d="M40.429,1c-0,-0.553 -0.448,-1 -1,-1c-5.582,0 -32.846,-0 -38.429,0c-0.265,0 -0.52,0.105 -0.707,0.293c-0.188,0.187 -0.293,0.442 -0.293,0.707c-0,1.444 0,4.096 -0,5.539c-0,0.266 0.105,0.52 0.293,0.708c0.187,0.187 0.442,0.293 0.707,0.293c5.583,-0 32.847,-0 38.431,-0c0.266,-0 0.52,-0.106 0.708,-0.294c0.187,-0.187 0.292,-0.442 0.292,-0.707c-0,-1.444 -0.001,-4.096 -0.002,-5.539Z" style="fill:#f7f9bf;"/><path d="M40.429,17.777c-0,-0.552 -0.448,-1 -1,-1c-5.582,0 -32.846,0 -38.429,0c-0.265,0 -0.52,0.106 -0.707,0.293c-0.188,0.188 -0.293,0.442 -0.293,0.707c-0,1.444 -0,4.096 0,5.54c-0,0.265 0.105,0.519 0.293,0.707c0.187,0.187 0.442,0.293 0.707,0.293c5.583,-0 32.847,-0 38.431,-0c0.266,-0 0.52,-0.106 0.708,-0.293c0.187,-0.188 0.292,-0.442 0.292,-0.708c-0,-1.444 -0.001,-4.096 -0.002,-5.539Z" style="fill:#f7f9bf;"/><path d="M40.429,34.554c-0,-0.552 -0.448,-1 -1,-1c-5.582,0 -32.846,0 -38.429,0c-0.265,0 -0.52,0.106 -0.707,0.293c-0.188,0.188 -0.293,0.442 -0.293,0.707c-0,1.444 -0,4.096 0,5.54c-0,0.265 0.105,0.52 0.293,0.707c0.187,0.188 0.442,0.293 0.707,0.293c5.583,-0 32.847,-0 38.431,-0c0.266,-0 0.52,-0.105 0.708,-0.293c0.187,-0.188 0.292,-0.442 0.292,-0.708c-0,-1.443 -0.001,-4.096 -0.002,-5.539Z" style="fill:#f7f9bf;"/></g></svg>