<?xml version="1.0" encoding="UTF-8" standalone="no"?><!DOCTYPE svg PUBLIC "-//W3C//DTD SVG 1.1//EN" "http://www.w3.org/Graphics/SVG/1.1/DTD/svg11.dtd"><svg width="100%" height="100%" viewBox="0 0 35 35" version="1.1" xmlns="http://www.w3.org/2000/svg" xmlns:xlink="http://www.w3.org/1999/xlink" xml:space="preserve" xmlns:serif="http://www.serif.com/" style="fill-rule:evenodd;clip-rule:evenodd;stroke-linejoin:round;stroke-miterlimit:2;"><g id="x"><path d="M33.446,29.294c0.39,-0.39 0.39,-1.023 -0,-1.414c-3.947,-3.946 -23.226,-23.225 -27.174,-27.173c-0.187,-0.187 -0.441,-0.293 -0.707,-0.293c-0.265,0 -0.519,0.106 -0.707,0.293c-1.021,1.021 -2.896,2.896 -3.917,3.917c-0.187,0.188 -0.293,0.442 -0.293,0.707c0,0.265 0.106,0.52 0.293,0.707c3.948,3.948 23.227,23.227 27.175,27.175c0.188,0.188 0.442,0.293 0.708,0.293c0.265,0 0.519,-0.105 0.707,-0.293c1.02,-1.021 2.895,-2.898 3.915,-3.919Z" style="fill:#f7f9bf;"/><path d="M29.294,0.943c-0.39,-0.39 -1.023,-0.39 -1.414,0c-3.946,3.947 -23.225,23.226 -27.173,27.174c-0.187,0.187 -0.293,0.441 -0.293,0.707c0,0.265 0.106,0.519 0.293,0.707c1.021,1.021 2.896,2.896 3.917,3.917c0.188,0.187 0.442,0.293 0.707,0.293c0.265,-0 0.52,-0.106 0.707,-0.293c3.948,-3.948 23.227,-23.227 27.175,-27.175c0.188,-0.188 0.293,-0.442 0.293,-0.708c0,-0.265 -0.105,-0.519 -0.293,-0.707c-1.021,-1.02 -2.898,-2.895 -3.919,-3.915Z" style="fill:#f7f9bf;"/></g></svg>